<?xml version="1.0" encoding="UTF-8" standalone="no"?>
<!-- Created with Inkscape (http://www.inkscape.org/) -->

<svg
   width="270mm"
   height="80mm"
   viewBox="0 0 270 80"
   version="1.1"
   id="svg1"
   xml:space="preserve"
   xmlns:xlink="http://www.w3.org/1999/xlink"
   xmlns="http://www.w3.org/2000/svg"
   xmlns:svg="http://www.w3.org/2000/svg"><defs
     id="defs1"><pattern
       xlink:href="#Strips1_2"
       preserveAspectRatio="xMidYMid"
       id="pattern60"
       patternTransform="matrix(0,0.7,-0.7,0,-62.106857,-40.411152)"
       x="0"
       y="0" /><pattern
       patternUnits="userSpaceOnUse"
       width="3"
       height="1"
       patternTransform="translate(0,0) scale(2,2)"
       preserveAspectRatio="xMidYMid"
       id="Strips1_2"
       style="fill:#389042">
      <rect
   style="stroke:none"
   x="0"
   y="-0.5"
   width="1"
   height="2"
   id="rect146" />
    </pattern><pattern
       xlink:href="#Strips2_1"
       preserveAspectRatio="xMidYMid"
       id="pattern44"
       patternTransform="rotate(-45)"
       x="0"
       y="0" /><pattern
       patternUnits="userSpaceOnUse"
       width="1.5"
       height="1"
       patternTransform="translate(0,0) scale(2,2)"
       preserveAspectRatio="xMidYMid"
       id="Strips2_1"
       style="fill:#389042">
      <rect
   style="stroke:none"
   x="0"
   y="-0.5"
   width="1"
   height="2"
   id="rect197" />
    </pattern><clipPath
       clipPathUnits="userSpaceOnUse"
       id="clipPath5"><path
         id="path5"
         style="fill:#ffffff;fill-opacity:1;stroke:none;stroke-width:1;stroke-dasharray:none;stroke-opacity:1"
         d="M 103.92079,48.594449 A 33.984488,33.984488 0 0 0 69.936299,82.57894 33.984488,33.984488 0 0 0 103.92079,116.56343 33.984488,33.984488 0 0 0 137.90528,82.57894 33.984488,33.984488 0 0 0 103.92079,48.594449 Z m 0,15.262117 A 18.722622,18.722622 0 0 1 122.64316,82.57894 18.722622,18.722622 0 0 1 103.92079,101.30183 18.722622,18.722622 0 0 1 85.1979,82.57894 18.722622,18.722622 0 0 1 103.92079,63.856566 Z" /></clipPath><clipPath
       clipPathUnits="userSpaceOnUse"
       id="clipPath5-9"><path
         id="path5-3"
         style="fill:#ffffff;fill-opacity:1;stroke:none;stroke-width:1;stroke-dasharray:none;stroke-opacity:1"
         d="M 103.92079,48.594449 A 33.984488,33.984488 0 0 0 69.936299,82.57894 33.984488,33.984488 0 0 0 103.92079,116.56343 33.984488,33.984488 0 0 0 137.90528,82.57894 33.984488,33.984488 0 0 0 103.92079,48.594449 Z m 0,15.262117 A 18.722622,18.722622 0 0 1 122.64316,82.57894 18.722622,18.722622 0 0 1 103.92079,101.30183 18.722622,18.722622 0 0 1 85.1979,82.57894 18.722622,18.722622 0 0 1 103.92079,63.856566 Z" /></clipPath></defs><g
     id="layer1"
     transform="translate(-2.4775439,-2.741442)"><path
       id="path1-6"
       style="fill:none;stroke:#389042;stroke-width:0.7"
       d="M 57.780856,42.167824 A 15.967006,15.967006 0 0 1 41.81385,58.13483 15.967006,15.967006 0 0 1 25.846845,42.167824 15.967006,15.967006 0 0 1 41.81385,26.200818 15.967006,15.967006 0 0 1 57.780856,42.167824 Z" /><path
       id="path1-6-2"
       style="fill:none;stroke:#389042;stroke-width:0.7"
       d="M 52.988104,42.167824 A 11.174253,11.174253 0 0 1 41.81385,53.342077 11.174253,11.174253 0 0 1 30.639597,42.167824 11.174253,11.174253 0 0 1 41.81385,30.99357 11.174253,11.174253 0 0 1 52.988104,42.167824 Z" /><path
       id="path1-6-3"
       style="fill:none;stroke:#389042;stroke-width:2"
       d="m 47.15958,42.167824 a 5.3457298,5.3457298 0 0 1 -5.34573,5.34573 5.3457298,5.3457298 0 0 1 -5.345729,-5.34573 5.3457298,5.3457298 0 0 1 5.345729,-5.34573 5.3457298,5.3457298 0 0 1 5.34573,5.34573 z" /><path
       id="rect1"
       mask="none"
       style="display:inline;fill:#ffffff;fill-opacity:1;stroke:none;stroke-width:1;stroke-dasharray:none;stroke-opacity:1"
       d="M 41.907292,8.1852688 V 23.454621 a 18.722622,18.722622 0 0 1 18.62884,18.71307 18.722622,18.722622 0 0 1 -18.72237,18.722887 18.722622,18.722622 0 0 1 -6.27559,-1.15548 H 12.784006 A 33.984488,33.984488 0 0 0 41.813762,76.152178 33.984488,33.984488 0 0 0 75.798252,42.167691 33.984488,33.984488 0 0 0 41.907292,8.1852688 Z" /><path
       id="rect1-1"
       mask="none"
       style="display:inline;fill:url(#pattern60);fill-opacity:1;fill-rule:evenodd;stroke:none;stroke-width:1;stroke-dasharray:none;stroke-opacity:1"
       d="M 41.907293,8.1852688 V 23.454621 a 18.722622,18.722622 0 0 1 18.62884,18.71307 18.722622,18.722622 0 0 1 -18.72237,18.722887 18.722622,18.722622 0 0 1 -6.275591,-1.15548 H 12.784006 A 33.984488,33.984488 0 0 0 41.813763,76.152178 33.984488,33.984488 0 0 0 75.798243,42.167691 33.984488,33.984488 0 0 0 41.907293,8.1852688 Z" /><path
       id="rect2-9-9"
       clip-path="url(#clipPath5-9)"
       style="fill:#ffffff"
       transform="translate(-62.106858,-40.411152)"
       d="m 27.07815,22.780029 h 76.93632 V 100.14616 H 27.07815 Z" /><path
       id="rect2-9"
       clip-path="url(#clipPath5)"
       style="fill:url(#pattern44)"
       transform="translate(-62.106858,-40.411152)"
       d="m 27.07815,22.780029 h 76.93632 V 100.14616 H 27.07815 Z" /><path
       id="path60"
       style="fill:#389042;fill-rule:evenodd;stroke-width:0.7"
       d="m 86.878246,42.167824 a 0.69999999,0.69999999 0 0 1 -0.7,0.7 0.69999999,0.69999999 0 0 1 -0.7,-0.7 0.69999999,0.69999999 0 0 1 0.7,-0.7 0.69999999,0.69999999 0 0 1 0.7,0.7 z" /><g
       id="text60"
       style="font-size:96px;line-height:0;white-space:pre;fill:#389042;fill-rule:evenodd;stroke-width:2.64567"
       transform="matrix(0.26458333,0,0,0.26458333,-21.469804,-3.9937499)"
       aria-label="zen garden&#10;s   p   a   c   e"><path
         style="font-size:133.333px;line-height:1;font-family:Roboto;-inkscape-font-specification:Roboto;text-align:center;text-anchor:middle;fill:#000000"
         d="m 449.20065,148.15146 h 41.21083 v 9.83071 h -55.92433 v -8.85415 l 38.86709,-51.62747 h -38.28116 v -9.960912 h 53.38528 v 8.528624 z m 82.9425,11.13279 q -14.32288,0 -23.30724,-9.37498 -8.98435,-9.44008 -8.98435,-25.19525 v -2.21353 q 0,-10.48175 3.97135,-18.68485 4.03644,-8.26821 11.19788,-12.890594 7.22655,-4.687488 15.62496,-4.687488 13.73695,0 21.35412,9.049456 7.61716,9.049456 7.61716,25.911396 v 5.013 H 511.8958 q 0.26042,10.41664 6.05467,16.86194 5.85936,6.38019 14.84372,6.38019 6.38019,0 10.80726,-2.60416 4.42707,-2.60416 7.74738,-6.90102 l 7.35675,5.72915 q -8.85415,13.60674 -26.56243,13.60674 z m -1.4974,-63.150884 q -7.29164,0 -12.23955,5.338524 -4.9479,5.27343 -6.11977,14.84372 h 35.28636 v -0.91146 q -0.52083,-9.17966 -4.9479,-14.19267 -4.42707,-5.078114 -11.97914,-5.078114 z m 54.29673,-8.593728 0.39063,8.854144 q 8.07289,-10.156224 21.09369,-10.156224 22.33068,0 22.52599,25.195252 v 46.54936 H 616.90855 V 111.3677 q -0.0651,-7.61717 -3.51562,-11.26299 -3.38541,-3.645824 -10.61195,-3.645824 -5.85936,0 -10.28643,3.124992 -4.42707,3.124992 -6.90103,8.203102 v 50.19519 H 573.54928 V 87.539638 Z m 92.31748,34.635332 q 0,-16.47132 7.61717,-26.171812 7.61717,-9.7656 20.18224,-9.7656 12.89059,0 20.11714,9.11456 l 0.58593,-7.81248 h 11.00258 v 68.749822 q 0,13.67184 -8.138,21.54943 -8.0729,7.87758 -21.74474,7.87758 -7.61716,0 -14.90881,-3.2552 -7.29165,-3.2552 -11.13279,-8.91925 l 6.24999,-7.22654 q 7.74737,9.57029 18.94526,9.57029 8.78904,0 13.67184,-4.94791 4.94791,-4.9479 4.94791,-13.93225 v -6.05468 q -7.22655,8.33332 -19.72652,8.33332 -12.36976,0 -20.05203,-9.96092 -7.61717,-9.96091 -7.61717,-27.14836 z m 12.10935,1.36718 q 0,11.91403 4.8828,18.74995 4.8828,6.77082 13.67184,6.77082 11.3932,0 16.73173,-10.35154 v -32.16137 q -5.53384,-10.091124 -16.60152,-10.091124 -8.78904,0 -13.73695,6.835924 -4.9479,6.83592 -4.9479,20.24734 z m 109.04921,34.44002 q -1.04167,-2.08333 -1.69271,-7.42186 -8.39841,8.72394 -20.05203,8.72394 -10.41664,0 -17.12235,-5.85936 -6.64061,-5.92447 -6.64061,-14.97392 0,-11.00258 8.33331,-17.05725 8.39842,-6.11978 23.56765,-6.11978 h 11.71872 v -5.53384 q 0,-6.31509 -3.77603,-10.026014 -3.77603,-3.776032 -11.13279,-3.776032 -6.44529,0 -10.80726,3.2552 -4.36197,3.255196 -4.36197,7.877586 h -12.10934 q 0,-5.27343 3.71093,-10.156226 3.77603,-4.947904 10.15622,-7.81248 6.4453,-2.864576 14.12757,-2.864576 12.17445,0 19.07547,6.119776 6.90102,6.054672 7.16144,16.731726 v 32.42179 q 0,9.7005 2.47395,15.42965 v 1.04167 z m -19.98693,-9.17967 q 5.66405,0 10.74216,-2.92968 5.07811,-2.92968 7.35675,-7.61717 v -14.45308 h -9.44008 q -22.13536,0 -22.13536,12.95569 0,5.66405 3.77603,8.85415 3.77603,3.19009 9.7005,3.19009 z m 83.07269,-50.455598 q -2.73436,-0.455728 -5.92446,-0.455728 -11.84893,0 -16.08069,10.091116 v 49.99988 H 827.45489 V 87.539638 h 11.71872 l 0.19531,8.138 q 5.92447,-9.44008 16.79684,-9.44008 3.51561,0 5.33852,0.911456 z m 6.90103,23.828068 q 0,-16.2109 7.68227,-26.041604 7.68227,-9.895808 20.11714,-9.895808 12.36976,0 19.5963,8.46352 V 57.982422 h 12.04424 v 99.999748 h -11.06768 l -0.58594,-7.55207 q -7.22654,8.85415 -20.11713,8.85415 -12.23955,0 -19.98693,-10.02602 -7.68227,-10.02602 -7.68227,-26.17181 z m 12.04424,1.36718 q 0,11.97914 4.9479,18.74995 4.94791,6.77082 13.67184,6.77082 11.45831,0 16.73173,-10.28643 V 106.4198 q -5.40363,-9.960914 -16.60152,-9.960914 -8.85414,0 -13.80205,6.835924 -4.9479,6.83592 -4.9479,20.24734 z m 95.31226,35.7421 q -14.32288,0 -23.30723,-9.37498 -8.98435,-9.44008 -8.98435,-25.19525 v -2.21353 q 0,-10.48175 3.97134,-18.68485 4.03645,-8.26821 11.19789,-12.890594 7.22655,-4.687488 15.62496,-4.687488 13.73695,0 21.35411,9.049456 7.61717,9.049456 7.61717,25.911396 v 5.013 h -47.72123 q 0.26042,10.41664 6.05467,16.86194 5.85936,6.38019 14.84371,6.38019 6.3802,0 10.80727,-2.60416 4.42707,-2.60416 7.74737,-6.90102 l 7.35671,5.72915 q -8.8541,13.60674 -26.56239,13.60674 z m -1.49739,-63.150884 q -7.29165,0 -12.23955,5.338524 -4.9479,5.27343 -6.11978,14.84372 h 35.28637 v -0.91146 q -0.52083,-9.17966 -4.9479,-14.19267 -4.42707,-5.078114 -11.97914,-5.078114 z m 54.29678,-8.593728 0.3906,8.854144 q 8.0729,-10.156224 21.0937,-10.156224 22.3307,0 22.526,25.195252 v 46.54936 h -12.0443 V 111.3677 q -0.065,-7.61717 -3.5156,-11.26299 -3.3854,-3.645824 -10.6119,-3.645824 -5.8594,0 -10.2865,3.124992 -4.427,3.124992 -6.901,8.203102 v 50.19519 H 1017.168 V 87.539638 Z"
         id="path11" /><path
         style="line-height:0.9;font-family:Roboto;-inkscape-font-specification:Roboto;text-align:center;text-anchor:middle;fill:#000000"
         d="m 520.3457,245.06229 q 0,-3.51563 -2.67187,-5.4375 -2.625,-1.96875 -9.23438,-3.375 -6.5625,-1.40625 -10.45312,-3.375 -3.84375,-1.96875 -5.71875,-4.6875 -1.82813,-2.71875 -1.82813,-6.46875 0,-6.23438 5.25,-10.54688 5.29688,-4.3125 13.5,-4.3125 8.625,0 13.96875,4.45313 5.39063,4.45312 5.39063,11.39062 h -8.71875 q 0,-3.5625 -3.04688,-6.14062 -3,-2.57813 -7.59375,-2.57813 -4.73437,0 -7.40625,2.0625 -2.67187,2.0625 -2.67187,5.39063 0,3.14062 2.48437,4.73437 2.48438,1.59375 8.95313,3.04688 6.51562,1.45312 10.54687,3.46875 4.03125,2.01562 5.95313,4.875 1.96875,2.8125 1.96875,6.89062 0,6.79688 -5.4375,10.92188 -5.4375,4.07812 -14.10938,4.07812 -6.09375,0 -10.78125,-2.15625 -4.6875,-2.15625 -7.35937,-6 -2.625,-3.89062 -2.625,-8.39062 h 8.67187 q 0.23438,4.35937 3.46875,6.9375 3.28125,2.53125 8.625,2.53125 4.92188,0 7.875,-1.96875 3,-2.01563 3,-5.34375 z m 134.10938,-11.34375 q 0,11.57812 -5.29688,18.65625 -5.29687,7.07812 -14.34375,7.07812 -9.23437,0 -14.53125,-5.85937 v 24.42187 h -8.67187 v -70.21875 h 7.92187 l 0.42188,5.625 q 5.29687,-6.5625 14.71875,-6.5625 9.14062,0 14.4375,6.89063 5.34375,6.89062 5.34375,19.17187 z m -8.67188,-0.98438 q 0,-8.57812 -3.65625,-13.54687 -3.65625,-4.96875 -10.03125,-4.96875 -7.875,0 -11.8125,6.98437 v 24.23438 q 3.89063,6.9375 11.90625,6.9375 6.23438,0 9.89063,-4.92188 3.70312,-4.96875 3.70312,-14.71875 z m 122.29688,25.78125 q -0.75,-1.5 -1.21875,-5.34375 -6.04688,6.28125 -14.4375,6.28125 -7.5,0 -12.32813,-4.21875 -4.78125,-4.26562 -4.78125,-10.78125 0,-7.92187 6,-12.28125 6.04688,-4.40625 16.96875,-4.40625 h 8.4375 v -3.98437 q 0,-4.54688 -2.71875,-7.21875 -2.71875,-2.71875 -8.01562,-2.71875 -4.64063,0 -7.78125,2.34375 -3.14063,2.34375 -3.14063,5.67187 h -8.71875 q 0,-3.79687 2.67188,-7.3125 2.71875,-3.5625 7.3125,-5.625 4.64062,-2.0625 10.17187,-2.0625 8.76563,0 13.73438,4.40625 4.96875,4.35938 5.15625,12.04688 v 23.34375 q 0,6.98437 1.78125,11.10937 v 0.75 z m -14.39063,-6.60937 q 4.07813,0 7.73438,-2.10938 3.65625,-2.10937 5.29687,-5.48437 v -10.40625 h -6.79687 q -15.9375,0 -15.9375,9.32812 0,4.07813 2.71875,6.375 2.71875,2.29688 6.98437,2.29688 z m 126.9375,0.46875 q 4.64063,0 8.10938,-2.8125 3.46875,-2.8125 3.84375,-7.03125 h 8.20312 q -0.23437,4.35937 -3,8.29687 -2.76562,3.9375 -7.40625,6.28125 -4.59375,2.34375 -9.75,2.34375 -10.35937,0 -16.5,-6.89062 -6.09375,-6.9375 -6.09375,-18.9375 v -1.45313 q 0,-7.40625 2.71875,-13.17187 2.71875,-5.76563 7.78125,-8.95313 5.10938,-3.1875 12.04688,-3.1875 8.53125,0 14.15625,5.10938 5.67187,5.10937 6.04687,13.26562 h -8.20312 q -0.375,-4.92187 -3.75,-8.0625 -3.32813,-3.1875 -8.25,-3.1875 -6.60938,0 -10.26563,4.78125 -3.60937,4.73438 -3.60937,13.73438 v 1.64062 q 0,8.76563 3.60937,13.5 3.60938,4.73438 10.3125,4.73438 z m 122.25005,7.07812 q -10.31255,0 -16.7813,-6.75 -6.46875,-6.79687 -6.46875,-18.14062 v -1.59375 q 0,-7.54688 2.85938,-13.45313 2.90625,-5.95312 8.0625,-9.28125 5.20312,-3.375 11.24997,-3.375 9.8907,0 15.375,6.51563 5.4844,6.51562 5.4844,18.65625 v 3.60937 h -34.35937 q 0.1875,7.5 4.35937,12.14063 4.21875,4.59375 10.6875,4.59375 4.5938,0 7.7813,-1.875 3.1875,-1.875 5.5781,-4.96875 l 5.2969,4.125 q -6.375,9.79687 -19.125,9.79687 z m -1.0782,-45.46875 q -5.24997,0 -8.81247,3.84375 -3.5625,3.79688 -4.40625,10.6875 h 25.40622 v -0.65625 q -0.375,-6.60937 -3.5625,-10.21875 -3.1875,-3.65625 -8.625,-3.65625 z"
         id="path12" /></g></g></svg>
