<?xml version="1.0" encoding="UTF-8" standalone="no"?>
<!-- Created with Inkscape (http://www.inkscape.org/) -->

<svg
   width="270mm"
   height="80mm"
   viewBox="0 0 270 80"
   version="1.1"
   id="svg1"
   xml:space="preserve"
   sodipodi:docname="zengarden-logo-inkscape.svg"
   inkscape:version="1.4 (e7c3feb100, 2024-10-09)"
   inkscape:export-filename="rysunek2.svg"
   inkscape:export-xdpi="96"
   inkscape:export-ydpi="96"
   xmlns:inkscape="http://www.inkscape.org/namespaces/inkscape"
   xmlns:sodipodi="http://sodipodi.sourceforge.net/DTD/sodipodi-0.dtd"
   xmlns:xlink="http://www.w3.org/1999/xlink"
   xmlns="http://www.w3.org/2000/svg"
   xmlns:svg="http://www.w3.org/2000/svg"><sodipodi:namedview
     id="namedview1"
     pagecolor="#ffffff"
     bordercolor="#000000"
     borderopacity="0.25"
     inkscape:showpageshadow="2"
     inkscape:pageopacity="0.0"
     inkscape:pagecheckerboard="0"
     inkscape:deskcolor="#d1d1d1"
     inkscape:document-units="mm"
     inkscape:zoom="0.70710678"
     inkscape:cx="429.92092"
     inkscape:cy="236.88077"
     inkscape:window-width="1712"
     inkscape:window-height="894"
     inkscape:window-x="1712"
     inkscape:window-y="32"
     inkscape:window-maximized="1"
     inkscape:current-layer="layer1"
     showguides="false" /><defs
     id="defs1"><rect
       x="404.46509"
       y="57.982758"
       width="701.44995"
       height="404.46509"
       id="rect60" /><pattern
       inkscape:collect="always"
       xlink:href="#Strips1_2"
       preserveAspectRatio="xMidYMid"
       id="pattern60"
       patternTransform="matrix(0,0.7,-0.7,0,-62.106857,-40.411152)"
       x="0"
       y="0" /><pattern
       inkscape:collect="always"
       patternUnits="userSpaceOnUse"
       width="3"
       height="1"
       patternTransform="translate(0,0) scale(2,2)"
       preserveAspectRatio="xMidYMid"
       id="Strips1_2"
       style="fill:#389042"
       inkscape:stockid="Stripes 03 (1:2)"
       inkscape:isstock="true"
       inkscape:label="Paski 03 (1:2)">
      <rect
   style="stroke:none"
   x="0"
   y="-0.5"
   width="1"
   height="2"
   id="rect146" />
    </pattern><pattern
       inkscape:collect="always"
       xlink:href="#Strips2_1"
       preserveAspectRatio="xMidYMid"
       id="pattern44"
       patternTransform="rotate(-45)"
       x="0"
       y="0" /><pattern
       inkscape:collect="always"
       patternUnits="userSpaceOnUse"
       width="1.5"
       height="1"
       patternTransform="translate(0,0) scale(2,2)"
       preserveAspectRatio="xMidYMid"
       id="Strips2_1"
       style="fill:#389042"
       inkscape:stockid="Stripes 12 (2:1)"
       inkscape:isstock="true"
       inkscape:label="Paski 12 (2:1)">
      <rect
   style="stroke:none"
   x="0"
   y="-0.5"
   width="1"
   height="2"
   id="rect197" />
    </pattern><clipPath
       clipPathUnits="userSpaceOnUse"
       id="clipPath54"><path
         id="path54"
         style="stroke-width:0.0999999;stroke-linecap:square;paint-order:markers fill stroke;stop-color:#000000"
         d="m 1691.1994,-792.32001 h 1634.8919 v 92.82806 H 1691.1994 Z" /></clipPath><filter
       id="mask-powermask-path-effect5_inverse"
       inkscape:label="filtermask-powermask-path-effect5"
       style="color-interpolation-filters:sRGB"
       height="100"
       width="100"
       x="-50"
       y="-50"><feColorMatrix
         id="mask-powermask-path-effect5_primitive1"
         values="1"
         type="saturate"
         result="fbSourceGraphic" /><feColorMatrix
         id="mask-powermask-path-effect5_primitive2"
         values="-1 0 0 0 1 0 -1 0 0 1 0 0 -1 0 1 0 0 0 1 0 "
         in="fbSourceGraphic" /></filter><clipPath
       clipPathUnits="userSpaceOnUse"
       id="clipPath5"><path
         id="path5"
         style="fill:#ffffff;fill-opacity:1;stroke:none;stroke-width:1;stroke-dasharray:none;stroke-opacity:1"
         d="M 103.92079,48.594449 A 33.984488,33.984488 0 0 0 69.936299,82.57894 33.984488,33.984488 0 0 0 103.92079,116.56343 33.984488,33.984488 0 0 0 137.90528,82.57894 33.984488,33.984488 0 0 0 103.92079,48.594449 Z m 0,15.262117 A 18.722622,18.722622 0 0 1 122.64316,82.57894 18.722622,18.722622 0 0 1 103.92079,101.30183 18.722622,18.722622 0 0 1 85.1979,82.57894 18.722622,18.722622 0 0 1 103.92079,63.856566 Z" /></clipPath><clipPath
       clipPathUnits="userSpaceOnUse"
       id="clipPath5-9"><path
         id="path5-3"
         style="fill:#ffffff;fill-opacity:1;stroke:none;stroke-width:1;stroke-dasharray:none;stroke-opacity:1"
         d="M 103.92079,48.594449 A 33.984488,33.984488 0 0 0 69.936299,82.57894 33.984488,33.984488 0 0 0 103.92079,116.56343 33.984488,33.984488 0 0 0 137.90528,82.57894 33.984488,33.984488 0 0 0 103.92079,48.594449 Z m 0,15.262117 A 18.722622,18.722622 0 0 1 122.64316,82.57894 18.722622,18.722622 0 0 1 103.92079,101.30183 18.722622,18.722622 0 0 1 85.1979,82.57894 18.722622,18.722622 0 0 1 103.92079,63.856566 Z" /></clipPath></defs><g
     inkscape:label="Warstwa 1"
     inkscape:groupmode="layer"
     id="layer1"
     transform="translate(-2.4775439,-2.741442)"><circle
       style="fill:none;stroke:#389042;stroke-width:0.7;stroke-dasharray:none;stroke-opacity:1"
       id="path1-6"
       cx="41.81385"
       cy="42.167824"
       r="15.967006" /><circle
       style="fill:none;stroke:#389042;stroke-width:0.7;stroke-dasharray:none;stroke-opacity:1"
       id="path1-6-2"
       cx="41.81385"
       cy="42.167824"
       r="11.174253" /><circle
       style="fill:none;fill-opacity:1;stroke:#389042;stroke-width:2;stroke-dasharray:none;stroke-opacity:1"
       id="path1-6-3"
       cx="41.81385"
       cy="42.167824"
       r="5.3457298" /><path
       id="rect1"
       mask="none"
       style="display:inline;fill:#ffffff;fill-opacity:1;stroke:none;stroke-width:1;stroke-dasharray:none;stroke-opacity:1"
       d="M 41.907292,8.1852688 V 23.454621 a 18.722622,18.722622 0 0 1 18.62884,18.71307 18.722622,18.722622 0 0 1 -18.72237,18.722887 18.722622,18.722622 0 0 1 -6.27559,-1.15548 H 12.784006 A 33.984488,33.984488 0 0 0 41.813762,76.152178 33.984488,33.984488 0 0 0 75.798252,42.167691 33.984488,33.984488 0 0 0 41.907292,8.1852688 Z" /><path
       id="rect1-1"
       mask="none"
       style="display:inline;fill:url(#pattern60);fill-opacity:1;fill-rule:evenodd;stroke:none;stroke-width:1;stroke-dasharray:none;stroke-opacity:1"
       d="M 41.907293,8.1852688 V 23.454621 a 18.722622,18.722622 0 0 1 18.62884,18.71307 18.722622,18.722622 0 0 1 -18.72237,18.722887 18.722622,18.722622 0 0 1 -6.275591,-1.15548 H 12.784006 A 33.984488,33.984488 0 0 0 41.813763,76.152178 33.984488,33.984488 0 0 0 75.798243,42.167691 33.984488,33.984488 0 0 0 41.907293,8.1852688 Z" /><rect
       style="fill:#ffffff;fill-opacity:1;stroke:none;stroke-width:1;stroke-dasharray:none;stroke-opacity:1"
       id="rect2-9-9"
       width="76.936325"
       height="77.366135"
       x="27.07815"
       y="22.780029"
       clip-path="url(#clipPath5-9)"
       transform="translate(-62.106858,-40.411152)" /><rect
       style="fill:url(#pattern44);fill-opacity:1;stroke:none;stroke-width:1;stroke-dasharray:none;stroke-opacity:1"
       id="rect2-9"
       width="76.936325"
       height="77.366135"
       x="27.07815"
       y="22.780029"
       clip-path="url(#clipPath5)"
       transform="translate(-62.106858,-40.411152)" /><circle
       style="fill:#389042;fill-opacity:1;fill-rule:evenodd;stroke:none;stroke-width:0.7;stroke-dasharray:none;stroke-opacity:1"
       id="path60"
       cx="86.178246"
       cy="42.167824"
       r="0.69999999" /><text
       xml:space="preserve"
       transform="matrix(0.26458333,0,0,0.26458333,-21.469804,-3.9937499)"
       id="text60"
       style="font-size:96px;line-height:0;font-variation-settings:normal;text-align:start;writing-mode:lr-tb;direction:ltr;white-space:pre;shape-inside:url(#rect60);display:inline;opacity:1;vector-effect:none;fill:#389042;fill-opacity:1;fill-rule:evenodd;stroke:none;stroke-width:2.64567;stroke-linecap:butt;stroke-linejoin:miter;stroke-miterlimit:4;stroke-dasharray:none;stroke-dashoffset:0;stroke-opacity:1;-inkscape-stroke:none"
       x="293.76218"
       y="0"><tspan
         x="428.758"
         y="157.98217"
         id="tspan3"><tspan
           style="font-size:133.333px;line-height:1"
           id="tspan1">zen garden</tspan><tspan
           style="line-height:0.9;font-family:Roboto;-inkscape-font-specification:Roboto;text-align:center;text-anchor:middle;fill:#000000"
           id="tspan2">
</tspan></tspan><tspan
         x="484.25195"
         y="258.51541"
         id="tspan7"><tspan
           style="line-height:0.9;font-family:Roboto;-inkscape-font-specification:Roboto;text-align:center;text-anchor:middle;fill:#000000"
           id="tspan4">s   p   a   c   e</tspan></tspan></text></g></svg>
